<svg width="16" height="17" viewBox="0 0 16 17" fill="none" xmlns="http://www.w3.org/2000/svg">
<path d="M12.0663 5.16667V13.1667H13.2663V5.16667H12.0663ZM11.333 13.9H4.66634V15.1H11.333V13.9ZM3.93301 13.1667V5.16667H2.73301V13.1667H3.93301ZM4.66634 4.43333H5.99967V3.23333H4.66634V4.43333ZM9.99967 4.43333H11.333V3.23333H9.99967V4.43333ZM4.66634 13.9C4.26133 13.9 3.93301 13.5717 3.93301 13.1667H2.73301C2.73301 14.2344 3.59859 15.1 4.66634 15.1V13.9ZM12.0663 13.1667C12.0663 13.5717 11.738 13.9 11.333 13.9V15.1C12.4008 15.1 13.2663 14.2344 13.2663 13.1667H12.0663ZM13.2663 5.16667C13.2663 4.09892 12.4008 3.23333 11.333 3.23333V4.43333C11.738 4.43333 12.0663 4.76166 12.0663 5.16667H13.2663ZM3.93301 5.16667C3.93301 4.76166 4.26133 4.43333 4.66634 4.43333V3.23333C3.59859 3.23333 2.73301 4.09892 2.73301 5.16667H3.93301ZM7.33301 3.1H8.66634V1.9H7.33301V3.1ZM8.66634 4.56667H7.33301V5.76667H8.66634V4.56667ZM7.33301 4.56667C6.928 4.56667 6.59967 4.23834 6.59967 3.83333H5.39967C5.39967 4.90108 6.26526 5.76667 7.33301 5.76667V4.56667ZM9.39967 3.83333C9.39967 4.23834 9.07135 4.56667 8.66634 4.56667V5.76667C9.73409 5.76667 10.5997 4.90108 10.5997 3.83333H9.39967ZM8.66634 3.1C9.07135 3.1 9.39967 3.42832 9.39967 3.83333H10.5997C10.5997 2.76558 9.73409 1.9 8.66634 1.9V3.1ZM7.33301 1.9C6.26526 1.9 5.39967 2.76558 5.39967 3.83333H6.59967C6.59967 3.42832 6.928 3.1 7.33301 3.1V1.9Z" fill="black"/>
</svg>
